<mxfile host="app.diagrams.net" agent="Mozilla/5.0 (Windows NT 10.0; Win64; x64) AppleWebKit/537.36 (KHTML, like Gecko) Chrome/137.0.0.0 Safari/537.36" version="27.1.6">
  <diagram name="Page-1" id="_slixHVqAW6j7FiyX80d">
    <mxGraphModel dx="149101" dy="81697" grid="1" gridSize="10" guides="1" tooltips="1" connect="1" arrows="1" fold="1" page="1" pageScale="1" pageWidth="827" pageHeight="1169" math="0" shadow="0">
      <root>
        <mxCell id="0" />
        <mxCell id="1" parent="0" />
        <mxCell id="u4TQqUVfMViUgBXdraMd-1" style="endArrow=none;labelBackgroundColor=none;fontColor=default;" edge="1" parent="1" />
        <mxCell id="u4TQqUVfMViUgBXdraMd-2" style="endArrow=none;labelBackgroundColor=none;fontColor=default;" edge="1" parent="1" />
        <mxCell id="u4TQqUVfMViUgBXdraMd-3" style="endArrow=none;labelBackgroundColor=none;fontColor=default;" edge="1" parent="1" />
        <mxCell id="u4TQqUVfMViUgBXdraMd-4" style="endArrow=none;labelBackgroundColor=none;fontColor=default;" edge="1" parent="1" />
        <mxCell id="u4TQqUVfMViUgBXdraMd-5" style="endArrow=none;labelBackgroundColor=none;fontColor=default;" edge="1" parent="1" />
        <mxCell id="u4TQqUVfMViUgBXdraMd-6" style="endArrow=none;labelBackgroundColor=none;fontColor=default;" edge="1" parent="1" />
        <mxCell id="u4TQqUVfMViUgBXdraMd-7" style="endArrow=none;labelBackgroundColor=none;fontColor=default;" edge="1" parent="1" />
        <mxCell id="u4TQqUVfMViUgBXdraMd-8" style="endArrow=none;labelBackgroundColor=none;fontColor=default;" edge="1" parent="1" />
        <mxCell id="u4TQqUVfMViUgBXdraMd-9" value="Pharmacy" style="swimlane;labelBackgroundColor=none;" vertex="1" parent="1">
          <mxGeometry x="-11010" y="-9710" width="990" height="1070" as="geometry" />
        </mxCell>
        <mxCell id="u4TQqUVfMViUgBXdraMd-10" value="SignUp" style="ellipse;labelBackgroundColor=none;" vertex="1" parent="u4TQqUVfMViUgBXdraMd-9">
          <mxGeometry x="533" y="180" width="140" height="40" as="geometry" />
        </mxCell>
        <mxCell id="u4TQqUVfMViUgBXdraMd-11" value="login" style="ellipse;labelBackgroundColor=none;" vertex="1" parent="u4TQqUVfMViUgBXdraMd-9">
          <mxGeometry x="170" y="200" width="140" height="40" as="geometry" />
        </mxCell>
        <mxCell id="u4TQqUVfMViUgBXdraMd-12" value="logout" style="ellipse;labelBackgroundColor=none;" vertex="1" parent="u4TQqUVfMViUgBXdraMd-9">
          <mxGeometry x="30" y="250" width="140" height="40" as="geometry" />
        </mxCell>
        <mxCell id="u4TQqUVfMViUgBXdraMd-13" value="Forget password" style="ellipse;labelBackgroundColor=none;" vertex="1" parent="u4TQqUVfMViUgBXdraMd-9">
          <mxGeometry x="210" y="80" width="140" height="40" as="geometry" />
        </mxCell>
        <mxCell id="u4TQqUVfMViUgBXdraMd-14" value="verifyOTP" style="ellipse;labelBackgroundColor=none;" vertex="1" parent="u4TQqUVfMViUgBXdraMd-9">
          <mxGeometry x="680" y="70" width="140" height="40" as="geometry" />
        </mxCell>
        <mxCell id="u4TQqUVfMViUgBXdraMd-15" style="edgeStyle=orthogonalEdgeStyle;rounded=0;orthogonalLoop=1;jettySize=auto;html=1;exitX=0;exitY=0.5;exitDx=0;exitDy=0;entryX=0.5;entryY=1;entryDx=0;entryDy=0;labelBackgroundColor=none;fontColor=default;" edge="1" parent="u4TQqUVfMViUgBXdraMd-9" source="u4TQqUVfMViUgBXdraMd-16" target="u4TQqUVfMViUgBXdraMd-11">
          <mxGeometry relative="1" as="geometry" />
        </mxCell>
        <mxCell id="u4TQqUVfMViUgBXdraMd-16" value="with backend" style="ellipse;labelBackgroundColor=none;" vertex="1" parent="u4TQqUVfMViUgBXdraMd-9">
          <mxGeometry x="230" y="290" width="140" height="40" as="geometry" />
        </mxCell>
        <mxCell id="u4TQqUVfMViUgBXdraMd-17" style="edgeStyle=orthogonalEdgeStyle;rounded=0;orthogonalLoop=1;jettySize=auto;html=1;exitX=1;exitY=1;exitDx=0;exitDy=0;labelBackgroundColor=none;fontColor=default;" edge="1" parent="u4TQqUVfMViUgBXdraMd-9" source="u4TQqUVfMViUgBXdraMd-18" target="u4TQqUVfMViUgBXdraMd-11">
          <mxGeometry relative="1" as="geometry" />
        </mxCell>
        <mxCell id="u4TQqUVfMViUgBXdraMd-18" value="with google" style="ellipse;labelBackgroundColor=none;" vertex="1" parent="u4TQqUVfMViUgBXdraMd-9">
          <mxGeometry y="130" width="140" height="40" as="geometry" />
        </mxCell>
        <mxCell id="u4TQqUVfMViUgBXdraMd-19" value="add medicine" style="ellipse;labelBackgroundColor=none;" vertex="1" parent="u4TQqUVfMViUgBXdraMd-9">
          <mxGeometry x="80" y="350" width="140" height="40" as="geometry" />
        </mxCell>
        <mxCell id="u4TQqUVfMViUgBXdraMd-20" value="confirm order" style="ellipse;labelBackgroundColor=none;" vertex="1" parent="u4TQqUVfMViUgBXdraMd-9">
          <mxGeometry x="280" y="380" width="140" height="40" as="geometry" />
        </mxCell>
        <mxCell id="u4TQqUVfMViUgBXdraMd-21" value="statistics" style="ellipse;labelBackgroundColor=none;" vertex="1" parent="u4TQqUVfMViUgBXdraMd-9">
          <mxGeometry x="440" y="430" width="140" height="40" as="geometry" />
        </mxCell>
        <mxCell id="u4TQqUVfMViUgBXdraMd-22" value="best selling medicine" style="ellipse;labelBackgroundColor=none;" vertex="1" parent="u4TQqUVfMViUgBXdraMd-9">
          <mxGeometry x="660" y="310" width="160" height="40" as="geometry" />
        </mxCell>
        <mxCell id="u4TQqUVfMViUgBXdraMd-23" value="fewest selling medicine" style="ellipse;labelBackgroundColor=none;" vertex="1" parent="u4TQqUVfMViUgBXdraMd-9">
          <mxGeometry x="650" y="410" width="160" height="40" as="geometry" />
        </mxCell>
        <mxCell id="u4TQqUVfMViUgBXdraMd-24" value="expired medicine" style="ellipse;labelBackgroundColor=none;" vertex="1" parent="u4TQqUVfMViUgBXdraMd-9">
          <mxGeometry x="580" y="500" width="140" height="40" as="geometry" />
        </mxCell>
        <mxCell id="u4TQqUVfMViUgBXdraMd-25" value="Daily inventory" style="ellipse;labelBackgroundColor=none;" vertex="1" parent="u4TQqUVfMViUgBXdraMd-9">
          <mxGeometry x="420" y="318" width="140" height="40" as="geometry" />
        </mxCell>
        <mxCell id="u4TQqUVfMViUgBXdraMd-26" value="show medicine" style="ellipse;labelBackgroundColor=none;" vertex="1" parent="u4TQqUVfMViUgBXdraMd-9">
          <mxGeometry x="189" y="530" width="140" height="40" as="geometry" />
        </mxCell>
        <mxCell id="u4TQqUVfMViUgBXdraMd-27" value="update medicine price" style="ellipse;labelBackgroundColor=none;" vertex="1" parent="u4TQqUVfMViUgBXdraMd-9">
          <mxGeometry x="390" y="550" width="160" height="40" as="geometry" />
        </mxCell>
        <mxCell id="u4TQqUVfMViUgBXdraMd-28" value="delete medicine" style="ellipse;labelBackgroundColor=none;" vertex="1" parent="u4TQqUVfMViUgBXdraMd-9">
          <mxGeometry x="329" y="620" width="140" height="40" as="geometry" />
        </mxCell>
        <mxCell id="u4TQqUVfMViUgBXdraMd-29" value="add alternative medicine" style="ellipse;labelBackgroundColor=none;" vertex="1" parent="u4TQqUVfMViUgBXdraMd-9">
          <mxGeometry x="40" y="600" width="160" height="40" as="geometry" />
        </mxCell>
        <mxCell id="u4TQqUVfMViUgBXdraMd-30" value="increase quantity" style="ellipse;labelBackgroundColor=none;" vertex="1" parent="u4TQqUVfMViUgBXdraMd-9">
          <mxGeometry x="130" y="710" width="140" height="40" as="geometry" />
        </mxCell>
        <mxCell id="u4TQqUVfMViUgBXdraMd-31" value="search for medicine" style="ellipse;labelBackgroundColor=none;" vertex="1" parent="u4TQqUVfMViUgBXdraMd-9">
          <mxGeometry x="790" y="620" width="160" height="40" as="geometry" />
        </mxCell>
        <mxCell id="u4TQqUVfMViUgBXdraMd-32" value="show prescription" style="ellipse;labelBackgroundColor=none;" vertex="1" parent="u4TQqUVfMViUgBXdraMd-9">
          <mxGeometry x="280" y="890" width="160" height="40" as="geometry" />
        </mxCell>
        <mxCell id="u4TQqUVfMViUgBXdraMd-33" value="show medicine" style="ellipse;labelBackgroundColor=none;" vertex="1" parent="u4TQqUVfMViUgBXdraMd-9">
          <mxGeometry x="780" y="830" width="140" height="40" as="geometry" />
        </mxCell>
        <mxCell id="u4TQqUVfMViUgBXdraMd-34" value="buy order" style="ellipse;labelBackgroundColor=none;" vertex="1" parent="u4TQqUVfMViUgBXdraMd-9">
          <mxGeometry x="610" y="650" width="120" height="40" as="geometry" />
        </mxCell>
        <mxCell id="u4TQqUVfMViUgBXdraMd-35" value="payment" style="ellipse;labelBackgroundColor=none;" vertex="1" parent="u4TQqUVfMViUgBXdraMd-9">
          <mxGeometry x="310" y="680" width="120" height="40" as="geometry" />
        </mxCell>
        <mxCell id="u4TQqUVfMViUgBXdraMd-36" value="include" style="endArrow=open;endSize=12;dashed=1;html=1;rounded=0;exitX=1;exitY=0;exitDx=0;exitDy=0;entryX=0.333;entryY=1;entryDx=0;entryDy=0;entryPerimeter=0;labelBackgroundColor=none;fontColor=default;" edge="1" parent="u4TQqUVfMViUgBXdraMd-9" source="u4TQqUVfMViUgBXdraMd-32" target="u4TQqUVfMViUgBXdraMd-35">
          <mxGeometry x="-0.0011" width="160" relative="1" as="geometry">
            <mxPoint x="300" y="530" as="sourcePoint" />
            <mxPoint x="360" y="730" as="targetPoint" />
            <mxPoint as="offset" />
          </mxGeometry>
        </mxCell>
        <mxCell id="u4TQqUVfMViUgBXdraMd-37" value="include" style="endArrow=open;endSize=12;dashed=1;html=1;rounded=0;entryX=0;entryY=1;entryDx=0;entryDy=0;exitX=1;exitY=0.5;exitDx=0;exitDy=0;labelBackgroundColor=none;fontColor=default;" edge="1" parent="u4TQqUVfMViUgBXdraMd-9" source="u4TQqUVfMViUgBXdraMd-32" target="u4TQqUVfMViUgBXdraMd-33">
          <mxGeometry width="160" relative="1" as="geometry">
            <mxPoint x="460" y="470" as="sourcePoint" />
            <mxPoint x="620" y="470" as="targetPoint" />
          </mxGeometry>
        </mxCell>
        <mxCell id="u4TQqUVfMViUgBXdraMd-38" value="extend" style="endArrow=open;endSize=12;dashed=1;html=1;rounded=0;entryX=0.5;entryY=1;entryDx=0;entryDy=0;exitX=0.689;exitY=0.967;exitDx=0;exitDy=0;exitPerimeter=0;labelBackgroundColor=none;fontColor=default;" edge="1" parent="u4TQqUVfMViUgBXdraMd-9" source="u4TQqUVfMViUgBXdraMd-34">
          <mxGeometry width="160" relative="1" as="geometry">
            <mxPoint x="673" y="650" as="sourcePoint" />
            <mxPoint x="823" y="830" as="targetPoint" />
          </mxGeometry>
        </mxCell>
        <mxCell id="u4TQqUVfMViUgBXdraMd-39" value="extend" style="endArrow=open;endSize=12;dashed=1;html=1;rounded=0;exitX=0.378;exitY=0.935;exitDx=0;exitDy=0;exitPerimeter=0;labelBackgroundColor=none;fontColor=default;" edge="1" parent="u4TQqUVfMViUgBXdraMd-9" source="u4TQqUVfMViUgBXdraMd-31" target="u4TQqUVfMViUgBXdraMd-33">
          <mxGeometry width="160" relative="1" as="geometry">
            <mxPoint x="491.4675823642174" y="640.002314181449" as="sourcePoint" />
            <mxPoint x="189" y="782.3400000000001" as="targetPoint" />
          </mxGeometry>
        </mxCell>
        <mxCell id="u4TQqUVfMViUgBXdraMd-40" value="extend" style="endArrow=open;endSize=12;dashed=1;html=1;rounded=0;exitX=0.416;exitY=-0.007;exitDx=0;exitDy=0;exitPerimeter=0;entryX=0.283;entryY=0.933;entryDx=0;entryDy=0;entryPerimeter=0;labelBackgroundColor=none;fontColor=default;" edge="1" parent="u4TQqUVfMViUgBXdraMd-9" source="u4TQqUVfMViUgBXdraMd-29" target="u4TQqUVfMViUgBXdraMd-26">
          <mxGeometry width="160" relative="1" as="geometry">
            <mxPoint x="380" y="510" as="sourcePoint" />
            <mxPoint x="540" y="510" as="targetPoint" />
          </mxGeometry>
        </mxCell>
        <mxCell id="u4TQqUVfMViUgBXdraMd-41" value="extend" style="endArrow=open;endSize=12;dashed=1;html=1;rounded=0;exitX=0.35;exitY=0.052;exitDx=0;exitDy=0;exitPerimeter=0;labelBackgroundColor=none;fontColor=default;" edge="1" parent="u4TQqUVfMViUgBXdraMd-9" source="u4TQqUVfMViUgBXdraMd-30" target="u4TQqUVfMViUgBXdraMd-26">
          <mxGeometry width="160" relative="1" as="geometry">
            <mxPoint x="380" y="510" as="sourcePoint" />
            <mxPoint x="540" y="510" as="targetPoint" />
          </mxGeometry>
        </mxCell>
        <mxCell id="u4TQqUVfMViUgBXdraMd-42" value="extend" style="endArrow=open;endSize=12;dashed=1;html=1;rounded=0;exitX=0.233;exitY=0.179;exitDx=0;exitDy=0;exitPerimeter=0;entryX=0.984;entryY=0.793;entryDx=0;entryDy=0;entryPerimeter=0;labelBackgroundColor=none;fontColor=default;" edge="1" parent="u4TQqUVfMViUgBXdraMd-9" source="u4TQqUVfMViUgBXdraMd-28" target="u4TQqUVfMViUgBXdraMd-26">
          <mxGeometry width="160" relative="1" as="geometry">
            <mxPoint x="380" y="510" as="sourcePoint" />
            <mxPoint x="540" y="510" as="targetPoint" />
          </mxGeometry>
        </mxCell>
        <mxCell id="u4TQqUVfMViUgBXdraMd-43" value="extend" style="endArrow=open;endSize=12;dashed=1;html=1;rounded=0;exitX=0.269;exitY=0.071;exitDx=0;exitDy=0;exitPerimeter=0;entryX=1;entryY=0.5;entryDx=0;entryDy=0;labelBackgroundColor=none;fontColor=default;" edge="1" parent="u4TQqUVfMViUgBXdraMd-9" source="u4TQqUVfMViUgBXdraMd-27" target="u4TQqUVfMViUgBXdraMd-26">
          <mxGeometry width="160" relative="1" as="geometry">
            <mxPoint x="380" y="510" as="sourcePoint" />
            <mxPoint x="540" y="510" as="targetPoint" />
          </mxGeometry>
        </mxCell>
        <mxCell id="u4TQqUVfMViUgBXdraMd-44" value="extend" style="endArrow=open;endSize=12;dashed=1;html=1;rounded=0;labelBackgroundColor=none;fontColor=default;" edge="1" parent="u4TQqUVfMViUgBXdraMd-9" target="u4TQqUVfMViUgBXdraMd-21">
          <mxGeometry width="160" relative="1" as="geometry">
            <mxPoint x="500" y="360" as="sourcePoint" />
            <mxPoint x="550" y="360" as="targetPoint" />
          </mxGeometry>
        </mxCell>
        <mxCell id="u4TQqUVfMViUgBXdraMd-45" value="extend" style="endArrow=open;endSize=12;dashed=1;html=1;rounded=0;entryX=1;entryY=0.5;entryDx=0;entryDy=0;labelBackgroundColor=none;fontColor=default;" edge="1" parent="u4TQqUVfMViUgBXdraMd-9" source="u4TQqUVfMViUgBXdraMd-24" target="u4TQqUVfMViUgBXdraMd-21">
          <mxGeometry width="160" relative="1" as="geometry">
            <mxPoint x="750" y="240" as="sourcePoint" />
            <mxPoint x="910" y="240" as="targetPoint" />
          </mxGeometry>
        </mxCell>
        <mxCell id="u4TQqUVfMViUgBXdraMd-46" value="extend" style="endArrow=open;endSize=12;dashed=1;html=1;rounded=0;exitX=0;exitY=0.5;exitDx=0;exitDy=0;labelBackgroundColor=none;fontColor=default;" edge="1" parent="u4TQqUVfMViUgBXdraMd-9" source="u4TQqUVfMViUgBXdraMd-22" target="u4TQqUVfMViUgBXdraMd-21">
          <mxGeometry width="160" relative="1" as="geometry">
            <mxPoint x="390" y="370" as="sourcePoint" />
            <mxPoint x="550" y="370" as="targetPoint" />
          </mxGeometry>
        </mxCell>
        <mxCell id="u4TQqUVfMViUgBXdraMd-47" value="extend" style="endArrow=open;endSize=12;dashed=1;html=1;rounded=0;exitX=0.225;exitY=0.877;exitDx=0;exitDy=0;exitPerimeter=0;entryX=1;entryY=0.25;entryDx=0;entryDy=0;entryPerimeter=0;labelBackgroundColor=none;fontColor=default;" edge="1" parent="u4TQqUVfMViUgBXdraMd-9" source="u4TQqUVfMViUgBXdraMd-23" target="u4TQqUVfMViUgBXdraMd-21">
          <mxGeometry width="160" relative="1" as="geometry">
            <mxPoint x="390" y="370" as="sourcePoint" />
            <mxPoint x="550" y="370" as="targetPoint" />
          </mxGeometry>
        </mxCell>
        <mxCell id="u4TQqUVfMViUgBXdraMd-48" value="include" style="endArrow=open;endSize=12;dashed=1;html=1;rounded=0;exitX=1;exitY=0;exitDx=0;exitDy=0;entryX=0.08;entryY=0.863;entryDx=0;entryDy=0;entryPerimeter=0;labelBackgroundColor=none;fontColor=default;" edge="1" parent="u4TQqUVfMViUgBXdraMd-9" source="u4TQqUVfMViUgBXdraMd-13" target="u4TQqUVfMViUgBXdraMd-52">
          <mxGeometry x="-0.054" y="10" width="160" relative="1" as="geometry">
            <mxPoint x="390" y="370" as="sourcePoint" />
            <mxPoint x="550" y="370" as="targetPoint" />
            <mxPoint as="offset" />
          </mxGeometry>
        </mxCell>
        <mxCell id="u4TQqUVfMViUgBXdraMd-49" value="include" style="endArrow=open;endSize=12;dashed=1;html=1;rounded=0;exitX=1;exitY=0.5;exitDx=0;exitDy=0;labelBackgroundColor=none;fontColor=default;" edge="1" parent="u4TQqUVfMViUgBXdraMd-9" source="u4TQqUVfMViUgBXdraMd-52" target="u4TQqUVfMViUgBXdraMd-14">
          <mxGeometry x="0.124" y="13" width="160" relative="1" as="geometry">
            <mxPoint x="390" y="370" as="sourcePoint" />
            <mxPoint x="550" y="370" as="targetPoint" />
            <mxPoint as="offset" />
          </mxGeometry>
        </mxCell>
        <mxCell id="u4TQqUVfMViUgBXdraMd-50" value="include" style="endArrow=open;endSize=12;dashed=1;html=1;rounded=0;exitX=0;exitY=0;exitDx=0;exitDy=0;entryX=0.631;entryY=1.043;entryDx=0;entryDy=0;entryPerimeter=0;labelBackgroundColor=none;fontColor=default;" edge="1" parent="u4TQqUVfMViUgBXdraMd-9" source="u4TQqUVfMViUgBXdraMd-10" target="u4TQqUVfMViUgBXdraMd-52">
          <mxGeometry width="160" relative="1" as="geometry">
            <mxPoint x="390" y="370" as="sourcePoint" />
            <mxPoint x="550" y="370" as="targetPoint" />
          </mxGeometry>
        </mxCell>
        <mxCell id="u4TQqUVfMViUgBXdraMd-51" style="edgeStyle=orthogonalEdgeStyle;rounded=0;orthogonalLoop=1;jettySize=auto;html=1;exitX=1;exitY=1;exitDx=0;exitDy=0;exitPerimeter=0;entryX=0.5;entryY=0;entryDx=0;entryDy=0;labelBackgroundColor=none;fontColor=default;fillColor=#1ba1e2;strokeColor=#006EAF;" edge="1" parent="u4TQqUVfMViUgBXdraMd-9" source="u4TQqUVfMViUgBXdraMd-65">
          <mxGeometry relative="1" as="geometry">
            <mxPoint x="-40.00000000001455" y="510" as="sourcePoint" />
            <mxPoint x="489.99999999998545" y="470" as="targetPoint" />
            <Array as="points">
              <mxPoint x="491" y="511" />
              <mxPoint x="491" y="470" />
            </Array>
          </mxGeometry>
        </mxCell>
        <mxCell id="u4TQqUVfMViUgBXdraMd-52" value="sendOTP" style="ellipse;labelBackgroundColor=none;" vertex="1" parent="u4TQqUVfMViUgBXdraMd-9">
          <mxGeometry x="445" y="60" width="140" height="40" as="geometry" />
        </mxCell>
        <mxCell id="u4TQqUVfMViUgBXdraMd-79" style="edgeStyle=orthogonalEdgeStyle;rounded=0;orthogonalLoop=1;jettySize=auto;html=1;entryX=1;entryY=1;entryDx=0;entryDy=0;" edge="1" parent="u4TQqUVfMViUgBXdraMd-9" source="u4TQqUVfMViUgBXdraMd-77" target="u4TQqUVfMViUgBXdraMd-35">
          <mxGeometry relative="1" as="geometry" />
        </mxCell>
        <mxCell id="u4TQqUVfMViUgBXdraMd-77" value="cash" style="ellipse;whiteSpace=wrap;html=1;" vertex="1" parent="u4TQqUVfMViUgBXdraMd-9">
          <mxGeometry x="520" y="760" width="70" height="40" as="geometry" />
        </mxCell>
        <mxCell id="u4TQqUVfMViUgBXdraMd-80" style="edgeStyle=orthogonalEdgeStyle;rounded=0;orthogonalLoop=1;jettySize=auto;html=1;exitX=0;exitY=0.5;exitDx=0;exitDy=0;entryX=1;entryY=0.5;entryDx=0;entryDy=0;" edge="1" parent="u4TQqUVfMViUgBXdraMd-9" source="u4TQqUVfMViUgBXdraMd-78" target="u4TQqUVfMViUgBXdraMd-35">
          <mxGeometry relative="1" as="geometry" />
        </mxCell>
        <mxCell id="u4TQqUVfMViUgBXdraMd-78" value="credit card" style="ellipse;whiteSpace=wrap;html=1;" vertex="1" parent="u4TQqUVfMViUgBXdraMd-9">
          <mxGeometry x="490" y="690" width="120" height="50" as="geometry" />
        </mxCell>
        <mxCell id="u4TQqUVfMViUgBXdraMd-53" style="endArrow=none;labelBackgroundColor=none;fontColor=default;" edge="1" parent="1" target="u4TQqUVfMViUgBXdraMd-10" />
        <mxCell id="u4TQqUVfMViUgBXdraMd-54" style="endArrow=none;labelBackgroundColor=none;fontColor=default;" edge="1" parent="1" target="u4TQqUVfMViUgBXdraMd-19" />
        <mxCell id="u4TQqUVfMViUgBXdraMd-55" style="endArrow=none;labelBackgroundColor=none;fontColor=default;" edge="1" parent="1" target="u4TQqUVfMViUgBXdraMd-31" />
        <mxCell id="u4TQqUVfMViUgBXdraMd-56" style="endArrow=none;labelBackgroundColor=none;fontColor=default;" edge="1" parent="1" target="u4TQqUVfMViUgBXdraMd-34" />
        <mxCell id="u4TQqUVfMViUgBXdraMd-57" value="Actor" style="shape=umlActor;verticalLabelPosition=bottom;verticalAlign=top;html=1;outlineConnect=0;labelBackgroundColor=none;" vertex="1" parent="1">
          <mxGeometry x="3020" y="140" width="30" height="90" as="geometry" />
        </mxCell>
        <mxCell id="u4TQqUVfMViUgBXdraMd-58" value="&#xa;  &#xa;    &#xa;      &#xa;        &#xa;        &#xa;        &#xa;        &#xa;        &#xa;          &#xa;        &#xa;        &#xa;          &#xa;        &#xa;        &#xa;          &#xa;        &#xa;        &#xa;          &#xa;        &#xa;&#xa;        &#xa;        &#xa;          &#xa;        &#xa;&#xa;        &#xa;        &#xa;        &#xa;          &#xa;        &#xa;        &#xa;          &#xa;        &#xa;        &#xa;          &#xa;        &#xa;        &#xa;          &#xa;        &#xa;        &#xa;          &#xa;        &#xa;        &#xa;          &#xa;        &#xa;        &#xa;          &#xa;        &#xa;        &#xa;          &#xa;        &#xa;&#xa;        &#xa;        &#xa;          &#xa;        &#xa;        &#xa;          &#xa;        &#xa;        &#xa;          &#xa;        &#xa;        &#xa;          &#xa;        &#xa;        &#xa;          &#xa;        &#xa;        &#xa;          &#xa;        &#xa;&#xa;        &#xa;        &#xa;        &#xa;        &#xa;        &#xa;        &#xa;&#xa;        &#xa;        &#xa;        &#xa;        &#xa;        &#xa;        &#xa;        &#xa;        &#xa;&#xa;      &#xa;    &#xa;  &#xa;" style="text;whiteSpace=wrap;html=1;labelBackgroundColor=none;" vertex="1" parent="1">
          <mxGeometry width="30" height="1350" as="geometry" />
        </mxCell>
        <mxCell id="u4TQqUVfMViUgBXdraMd-59" style="edgeStyle=orthogonalEdgeStyle;rounded=0;orthogonalLoop=1;jettySize=auto;html=1;exitX=1;exitY=1;exitDx=0;exitDy=0;exitPerimeter=0;labelBackgroundColor=none;fontColor=default;" edge="1" parent="1" source="u4TQqUVfMViUgBXdraMd-61" target="u4TQqUVfMViUgBXdraMd-11">
          <mxGeometry relative="1" as="geometry">
            <Array as="points">
              <mxPoint x="-11080" y="-9640" />
              <mxPoint x="-10830" y="-9640" />
            </Array>
          </mxGeometry>
        </mxCell>
        <mxCell id="u4TQqUVfMViUgBXdraMd-60" style="edgeStyle=orthogonalEdgeStyle;rounded=0;orthogonalLoop=1;jettySize=auto;html=1;entryX=0;entryY=0.5;entryDx=0;entryDy=0;labelBackgroundColor=none;fontColor=default;" edge="1" parent="1" source="u4TQqUVfMViUgBXdraMd-61" target="u4TQqUVfMViUgBXdraMd-12">
          <mxGeometry relative="1" as="geometry" />
        </mxCell>
        <mxCell id="u4TQqUVfMViUgBXdraMd-61" value="Abstract user&lt;div&gt;&lt;br&gt;&lt;/div&gt;" style="shape=umlActor;verticalLabelPosition=bottom;verticalAlign=top;html=1;outlineConnect=0;movable=1;resizable=1;rotatable=1;deletable=1;editable=1;locked=0;connectable=1;labelBackgroundColor=none;" vertex="1" parent="1">
          <mxGeometry x="-11130" y="-9690" width="50" height="60" as="geometry" />
        </mxCell>
        <mxCell id="u4TQqUVfMViUgBXdraMd-62" style="edgeStyle=orthogonalEdgeStyle;rounded=0;orthogonalLoop=1;jettySize=auto;html=1;exitX=0.25;exitY=0.1;exitDx=0;exitDy=0;exitPerimeter=0;labelBackgroundColor=none;fontColor=default;" edge="1" parent="1" source="u4TQqUVfMViUgBXdraMd-65" target="u4TQqUVfMViUgBXdraMd-61">
          <mxGeometry relative="1" as="geometry" />
        </mxCell>
        <mxCell id="u4TQqUVfMViUgBXdraMd-63" style="edgeStyle=orthogonalEdgeStyle;rounded=0;orthogonalLoop=1;jettySize=auto;html=1;exitX=1;exitY=1;exitDx=0;exitDy=0;exitPerimeter=0;entryX=0;entryY=0.5;entryDx=0;entryDy=0;labelBackgroundColor=none;fontColor=default;fillColor=#1ba1e2;strokeColor=#006EAF;" edge="1" parent="1" source="u4TQqUVfMViUgBXdraMd-65" target="u4TQqUVfMViUgBXdraMd-19">
          <mxGeometry relative="1" as="geometry">
            <Array as="points">
              <mxPoint x="-10980" y="-9200" />
              <mxPoint x="-10980" y="-9340" />
            </Array>
          </mxGeometry>
        </mxCell>
        <mxCell id="u4TQqUVfMViUgBXdraMd-64" style="edgeStyle=orthogonalEdgeStyle;rounded=0;orthogonalLoop=1;jettySize=auto;html=1;labelBackgroundColor=none;fontColor=default;fillColor=#1ba1e2;strokeColor=#006EAF;entryX=0;entryY=0;entryDx=0;entryDy=0;" edge="1" parent="1" source="u4TQqUVfMViUgBXdraMd-65" target="u4TQqUVfMViUgBXdraMd-26">
          <mxGeometry relative="1" as="geometry">
            <mxPoint x="-10800" y="-9180" as="targetPoint" />
          </mxGeometry>
        </mxCell>
        <mxCell id="u4TQqUVfMViUgBXdraMd-65" value="pharmacist&lt;div&gt;&lt;br&gt;&lt;/div&gt;" style="shape=umlActor;verticalLabelPosition=bottom;verticalAlign=top;html=1;outlineConnect=0;labelBackgroundColor=none;" vertex="1" parent="1">
          <mxGeometry x="-11060" y="-9260" width="30" height="60" as="geometry" />
        </mxCell>
        <mxCell id="u4TQqUVfMViUgBXdraMd-66" style="edgeStyle=orthogonalEdgeStyle;rounded=0;orthogonalLoop=1;jettySize=auto;html=1;exitX=0.75;exitY=0.1;exitDx=0;exitDy=0;exitPerimeter=0;entryX=0.5;entryY=0;entryDx=0;entryDy=0;labelBackgroundColor=none;fontColor=default;fillColor=#d80073;strokeColor=#A50040;strokeWidth=2;" edge="1" parent="1" source="u4TQqUVfMViUgBXdraMd-68" target="u4TQqUVfMViUgBXdraMd-32">
          <mxGeometry relative="1" as="geometry" />
        </mxCell>
        <mxCell id="u4TQqUVfMViUgBXdraMd-67" style="edgeStyle=orthogonalEdgeStyle;rounded=0;orthogonalLoop=1;jettySize=auto;html=1;entryX=0.5;entryY=1;entryDx=0;entryDy=0;labelBackgroundColor=none;fontColor=default;fillColor=#d80073;strokeColor=#A50040;strokeWidth=2;" edge="1" parent="1" source="u4TQqUVfMViUgBXdraMd-68" target="u4TQqUVfMViUgBXdraMd-33">
          <mxGeometry relative="1" as="geometry" />
        </mxCell>
        <mxCell id="u4TQqUVfMViUgBXdraMd-68" value="user&lt;div&gt;&lt;br&gt;&lt;/div&gt;" style="shape=umlActor;verticalLabelPosition=bottom;verticalAlign=top;html=1;outlineConnect=0;labelBackgroundColor=none;" vertex="1" parent="1">
          <mxGeometry x="-11130" y="-8780" width="30" height="90" as="geometry" />
        </mxCell>
        <mxCell id="u4TQqUVfMViUgBXdraMd-69" style="edgeStyle=orthogonalEdgeStyle;rounded=0;orthogonalLoop=1;jettySize=auto;html=1;entryX=0;entryY=1;entryDx=0;entryDy=0;entryPerimeter=0;labelBackgroundColor=none;fontColor=default;" edge="1" parent="1" source="u4TQqUVfMViUgBXdraMd-68" target="u4TQqUVfMViUgBXdraMd-61">
          <mxGeometry relative="1" as="geometry" />
        </mxCell>
        <mxCell id="u4TQqUVfMViUgBXdraMd-70" style="edgeStyle=orthogonalEdgeStyle;rounded=0;orthogonalLoop=1;jettySize=auto;html=1;exitX=0.5;exitY=0.5;exitDx=0;exitDy=0;exitPerimeter=0;labelBackgroundColor=none;fontColor=default;fillColor=#fa6800;strokeColor=#C73500;strokeWidth=2;" edge="1" parent="1" source="u4TQqUVfMViUgBXdraMd-72" target="u4TQqUVfMViUgBXdraMd-10">
          <mxGeometry relative="1" as="geometry">
            <mxPoint x="-9980" y="-9780" as="targetPoint" />
          </mxGeometry>
        </mxCell>
        <mxCell id="u4TQqUVfMViUgBXdraMd-71" style="edgeStyle=orthogonalEdgeStyle;rounded=0;orthogonalLoop=1;jettySize=auto;html=1;exitX=0;exitY=1;exitDx=0;exitDy=0;exitPerimeter=0;entryX=0.857;entryY=0.25;entryDx=0;entryDy=0;entryPerimeter=0;labelBackgroundColor=none;fontColor=default;fillColor=#fa6800;strokeColor=#C73500;strokeWidth=2;" edge="1" parent="1" source="u4TQqUVfMViUgBXdraMd-72" target="u4TQqUVfMViUgBXdraMd-11">
          <mxGeometry relative="1" as="geometry">
            <mxPoint x="-10720" y="-9510" as="targetPoint" />
            <Array as="points">
              <mxPoint x="-10010" y="-9450" />
              <mxPoint x="-10245" y="-9450" />
              <mxPoint x="-10245" y="-9560" />
              <mxPoint x="-10720" y="-9560" />
            </Array>
          </mxGeometry>
        </mxCell>
        <mxCell id="u4TQqUVfMViUgBXdraMd-72" value="system&lt;div&gt;&lt;br&gt;&lt;/div&gt;" style="shape=umlActor;verticalLabelPosition=bottom;verticalAlign=top;html=1;outlineConnect=0;labelBackgroundColor=none;" vertex="1" parent="1">
          <mxGeometry x="-10010" y="-9540" width="40" height="60" as="geometry" />
        </mxCell>
        <mxCell id="u4TQqUVfMViUgBXdraMd-73" style="edgeStyle=orthogonalEdgeStyle;rounded=0;orthogonalLoop=1;jettySize=auto;html=1;labelBackgroundColor=none;fontColor=default;" edge="1" parent="1">
          <mxGeometry relative="1" as="geometry">
            <Array as="points">
              <mxPoint x="-10710" y="-9670" />
            </Array>
            <mxPoint x="-11080" y="-9670.000000000007" as="sourcePoint" />
            <mxPoint x="-10710" y="-9630" as="targetPoint" />
          </mxGeometry>
        </mxCell>
        <mxCell id="u4TQqUVfMViUgBXdraMd-74" style="edgeStyle=orthogonalEdgeStyle;rounded=0;orthogonalLoop=1;jettySize=auto;html=1;entryX=0.36;entryY=0.162;entryDx=0;entryDy=0;entryPerimeter=0;labelBackgroundColor=none;fontColor=default;" edge="1" parent="1" source="u4TQqUVfMViUgBXdraMd-61" target="u4TQqUVfMViUgBXdraMd-31">
          <mxGeometry relative="1" as="geometry" />
        </mxCell>
        <mxCell id="u4TQqUVfMViUgBXdraMd-75" style="edgeStyle=orthogonalEdgeStyle;rounded=0;orthogonalLoop=1;jettySize=auto;html=1;entryX=0.286;entryY=1;entryDx=0;entryDy=0;entryPerimeter=0;labelBackgroundColor=none;fontColor=default;fillColor=#1ba1e2;strokeColor=#006EAF;" edge="1" parent="1" source="u4TQqUVfMViUgBXdraMd-65" target="u4TQqUVfMViUgBXdraMd-20">
          <mxGeometry relative="1" as="geometry">
            <mxPoint x="-10691" y="-9280" as="targetPoint" />
          </mxGeometry>
        </mxCell>
        <mxCell id="u4TQqUVfMViUgBXdraMd-76" style="edgeStyle=orthogonalEdgeStyle;rounded=0;orthogonalLoop=1;jettySize=auto;html=1;entryX=1;entryY=1;entryDx=0;entryDy=0;labelBackgroundColor=none;fontColor=default;exitX=1;exitY=1;exitDx=0;exitDy=0;exitPerimeter=0;fillColor=#fa6800;strokeColor=#C73500;strokeWidth=2;" edge="1" parent="1" source="u4TQqUVfMViUgBXdraMd-72" target="u4TQqUVfMViUgBXdraMd-13">
          <mxGeometry relative="1" as="geometry">
            <mxPoint x="-9850" y="-9820" as="targetPoint" />
            <Array as="points">
              <mxPoint x="-9970" y="-9430" />
              <mxPoint x="-10669" y="-9430" />
              <mxPoint x="-10669" y="-9580" />
              <mxPoint x="-10681" y="-9580" />
            </Array>
            <mxPoint x="-9900" y="-9500" as="sourcePoint" />
          </mxGeometry>
        </mxCell>
      </root>
    </mxGraphModel>
  </diagram>
</mxfile>
